<mxfile host="app.diagrams.net" modified="2023-09-16T09:42:24.842Z" agent="Mozilla/5.0 (Windows NT 10.0; Win64; x64) AppleWebKit/537.36 (KHTML, like Gecko) Chrome/116.0.0.0 Safari/537.36" etag="53Zl49bUWQck5Ikj147r" version="21.7.5" type="device">
  <diagram name="Page-1" id="hDhawDrMOq3fDyaG_z1i">
    <mxGraphModel dx="1050" dy="566" grid="1" gridSize="10" guides="1" tooltips="1" connect="1" arrows="1" fold="1" page="1" pageScale="1" pageWidth="850" pageHeight="1100" math="0" shadow="0">
      <root>
        <mxCell id="0" />
        <mxCell id="1" parent="0" />
        <mxCell id="Y4_OtuAko8wCgOKkr69z-1" value="" style="rounded=1;whiteSpace=wrap;html=1;" vertex="1" parent="1">
          <mxGeometry x="230" y="50" width="280" height="490" as="geometry" />
        </mxCell>
        <mxCell id="Y4_OtuAko8wCgOKkr69z-2" value="&lt;b&gt;Analytics Engine&lt;/b&gt;" style="text;html=1;strokeColor=none;fillColor=none;align=center;verticalAlign=middle;whiteSpace=wrap;rounded=0;fontSize=18;" vertex="1" parent="1">
          <mxGeometry x="285" y="60" width="170" height="30" as="geometry" />
        </mxCell>
        <mxCell id="Y4_OtuAko8wCgOKkr69z-4" style="rounded=0;orthogonalLoop=1;jettySize=auto;html=1;exitX=1;exitY=0.5;exitDx=0;exitDy=0;exitPerimeter=0;entryX=0;entryY=0.121;entryDx=0;entryDy=0;entryPerimeter=0;" edge="1" parent="1" source="Y4_OtuAko8wCgOKkr69z-3" target="Y4_OtuAko8wCgOKkr69z-1">
          <mxGeometry relative="1" as="geometry" />
        </mxCell>
        <mxCell id="Y4_OtuAko8wCgOKkr69z-3" value="Trip&lt;br&gt;&amp;nbsp;Database" style="shape=cylinder3;whiteSpace=wrap;html=1;boundedLbl=1;backgroundOutline=1;size=15;" vertex="1" parent="1">
          <mxGeometry x="70" y="110" width="80" height="80" as="geometry" />
        </mxCell>
        <mxCell id="Y4_OtuAko8wCgOKkr69z-5" value="Gather users Trip historical data" style="shape=document;whiteSpace=wrap;html=1;boundedLbl=1;fontFamily=Helvetica;fontSize=11;fontColor=default;" vertex="1" parent="1">
          <mxGeometry x="310" y="130" width="120" height="80" as="geometry" />
        </mxCell>
        <mxCell id="Y4_OtuAko8wCgOKkr69z-11" style="edgeStyle=none;rounded=0;orthogonalLoop=1;jettySize=auto;html=1;exitX=1.003;exitY=0.282;exitDx=0;exitDy=0;entryX=0;entryY=0.5;entryDx=0;entryDy=0;labelBackgroundColor=default;strokeColor=default;fontFamily=Helvetica;fontSize=11;fontColor=default;endArrow=classic;exitPerimeter=0;" edge="1" parent="1" source="Y4_OtuAko8wCgOKkr69z-1" target="Y4_OtuAko8wCgOKkr69z-6">
          <mxGeometry relative="1" as="geometry" />
        </mxCell>
        <mxCell id="Y4_OtuAko8wCgOKkr69z-15" style="edgeStyle=none;shape=connector;rounded=0;orthogonalLoop=1;jettySize=auto;html=1;exitX=1;exitY=0.5;exitDx=0;exitDy=0;entryX=0.003;entryY=0.395;entryDx=0;entryDy=0;entryPerimeter=0;labelBackgroundColor=default;strokeColor=default;fontFamily=Helvetica;fontSize=11;fontColor=default;endArrow=classic;" edge="1" parent="1">
          <mxGeometry relative="1" as="geometry">
            <mxPoint x="669.64" y="130" as="sourcePoint" />
            <mxPoint x="719.9999999999999" y="241.60000000000002" as="targetPoint" />
          </mxGeometry>
        </mxCell>
        <mxCell id="Y4_OtuAko8wCgOKkr69z-6" value="Travel Trends data" style="rounded=0;whiteSpace=wrap;html=1;fontFamily=Helvetica;fontSize=11;fontColor=default;" vertex="1" parent="1">
          <mxGeometry x="550" y="110" width="120" height="60" as="geometry" />
        </mxCell>
        <mxCell id="Y4_OtuAko8wCgOKkr69z-12" style="edgeStyle=none;shape=connector;rounded=0;orthogonalLoop=1;jettySize=auto;html=1;exitX=1;exitY=0.388;exitDx=0;exitDy=0;entryX=0;entryY=0.5;entryDx=0;entryDy=0;labelBackgroundColor=default;strokeColor=default;fontFamily=Helvetica;fontSize=11;fontColor=default;endArrow=classic;exitPerimeter=0;" edge="1" parent="1" source="Y4_OtuAko8wCgOKkr69z-1" target="Y4_OtuAko8wCgOKkr69z-7">
          <mxGeometry relative="1" as="geometry" />
        </mxCell>
        <mxCell id="Y4_OtuAko8wCgOKkr69z-16" style="edgeStyle=none;shape=connector;rounded=0;orthogonalLoop=1;jettySize=auto;html=1;exitX=1;exitY=0.5;exitDx=0;exitDy=0;labelBackgroundColor=default;strokeColor=default;fontFamily=Helvetica;fontSize=11;fontColor=default;endArrow=classic;" edge="1" parent="1" source="Y4_OtuAko8wCgOKkr69z-7">
          <mxGeometry relative="1" as="geometry">
            <mxPoint x="720" y="250" as="targetPoint" />
          </mxGeometry>
        </mxCell>
        <mxCell id="Y4_OtuAko8wCgOKkr69z-7" value="Locations data" style="rounded=0;whiteSpace=wrap;html=1;fontFamily=Helvetica;fontSize=11;fontColor=default;" vertex="1" parent="1">
          <mxGeometry x="550" y="210" width="120" height="60" as="geometry" />
        </mxCell>
        <mxCell id="Y4_OtuAko8wCgOKkr69z-13" style="edgeStyle=none;shape=connector;rounded=0;orthogonalLoop=1;jettySize=auto;html=1;exitX=1;exitY=0.5;exitDx=0;exitDy=0;entryX=0;entryY=0.5;entryDx=0;entryDy=0;labelBackgroundColor=default;strokeColor=default;fontFamily=Helvetica;fontSize=11;fontColor=default;endArrow=classic;" edge="1" parent="1" source="Y4_OtuAko8wCgOKkr69z-1" target="Y4_OtuAko8wCgOKkr69z-8">
          <mxGeometry relative="1" as="geometry" />
        </mxCell>
        <mxCell id="Y4_OtuAko8wCgOKkr69z-17" style="edgeStyle=none;shape=connector;rounded=0;orthogonalLoop=1;jettySize=auto;html=1;exitX=1;exitY=0.5;exitDx=0;exitDy=0;entryX=0;entryY=0.5;entryDx=0;entryDy=0;labelBackgroundColor=default;strokeColor=default;fontFamily=Helvetica;fontSize=11;fontColor=default;endArrow=classic;" edge="1" parent="1" source="Y4_OtuAko8wCgOKkr69z-8" target="Y4_OtuAko8wCgOKkr69z-10">
          <mxGeometry relative="1" as="geometry" />
        </mxCell>
        <mxCell id="Y4_OtuAko8wCgOKkr69z-8" value="Hotel data" style="rounded=0;whiteSpace=wrap;html=1;fontFamily=Helvetica;fontSize=11;fontColor=default;" vertex="1" parent="1">
          <mxGeometry x="550" y="310" width="120" height="60" as="geometry" />
        </mxCell>
        <mxCell id="Y4_OtuAko8wCgOKkr69z-14" style="edgeStyle=none;shape=connector;rounded=0;orthogonalLoop=1;jettySize=auto;html=1;exitX=0.997;exitY=0.66;exitDx=0;exitDy=0;entryX=0;entryY=0.5;entryDx=0;entryDy=0;labelBackgroundColor=default;strokeColor=default;fontFamily=Helvetica;fontSize=11;fontColor=default;endArrow=classic;exitPerimeter=0;" edge="1" parent="1" source="Y4_OtuAko8wCgOKkr69z-1" target="Y4_OtuAko8wCgOKkr69z-9">
          <mxGeometry relative="1" as="geometry" />
        </mxCell>
        <mxCell id="Y4_OtuAko8wCgOKkr69z-18" style="edgeStyle=none;shape=connector;rounded=0;orthogonalLoop=1;jettySize=auto;html=1;exitX=1;exitY=0.5;exitDx=0;exitDy=0;labelBackgroundColor=default;strokeColor=default;fontFamily=Helvetica;fontSize=11;fontColor=default;endArrow=classic;" edge="1" parent="1">
          <mxGeometry relative="1" as="geometry">
            <mxPoint x="720" y="270" as="targetPoint" />
            <mxPoint x="670" y="440" as="sourcePoint" />
          </mxGeometry>
        </mxCell>
        <mxCell id="Y4_OtuAko8wCgOKkr69z-9" value="Aireline data" style="rounded=0;whiteSpace=wrap;html=1;fontFamily=Helvetica;fontSize=11;fontColor=default;" vertex="1" parent="1">
          <mxGeometry x="550" y="400" width="120" height="60" as="geometry" />
        </mxCell>
        <mxCell id="Y4_OtuAko8wCgOKkr69z-10" value="&lt;font style=&quot;font-size: 13px;&quot;&gt;Various Graphs and Charts with&lt;br&gt;&lt;span style=&quot;background-color: initial;&quot;&gt;&lt;br&gt;&lt;/span&gt;&lt;/font&gt;&lt;ul style=&quot;font-size: 13px;&quot;&gt;&lt;li&gt;&lt;font style=&quot;font-size: 13px;&quot;&gt;&lt;span style=&quot;background-color: initial;&quot;&gt;&amp;nbsp;preferences&lt;/span&gt;&lt;/font&gt;&lt;/li&gt;&lt;li&gt;&lt;font style=&quot;font-size: 13px;&quot;&gt;&amp;nbsp;cancellation&lt;/font&gt;&lt;/li&gt;&lt;li style=&quot;&quot;&gt;&lt;font style=&quot;font-size: 13px;&quot;&gt;update&amp;nbsp;&lt;/font&gt;&lt;/li&gt;&lt;/ul&gt;" style="shape=document;whiteSpace=wrap;html=1;boundedLbl=1;fontFamily=Helvetica;fontSize=11;fontColor=default;" vertex="1" parent="1">
          <mxGeometry x="720" y="150" width="130" height="180" as="geometry" />
        </mxCell>
        <mxCell id="Y4_OtuAko8wCgOKkr69z-19" value="Perform AI/ML to identity trends" style="shape=document;whiteSpace=wrap;html=1;boundedLbl=1;fontFamily=Helvetica;fontSize=11;fontColor=default;" vertex="1" parent="1">
          <mxGeometry x="310" y="350" width="120" height="80" as="geometry" />
        </mxCell>
        <mxCell id="Y4_OtuAko8wCgOKkr69z-20" value="perform query based output type" style="shape=document;whiteSpace=wrap;html=1;boundedLbl=1;fontFamily=Helvetica;fontSize=11;fontColor=default;" vertex="1" parent="1">
          <mxGeometry x="310" y="240" width="120" height="80" as="geometry" />
        </mxCell>
        <mxCell id="Y4_OtuAko8wCgOKkr69z-22" style="edgeStyle=none;shape=connector;rounded=0;orthogonalLoop=1;jettySize=auto;html=1;exitX=1;exitY=0.5;exitDx=0;exitDy=0;exitPerimeter=0;entryX=0;entryY=0.351;entryDx=0;entryDy=0;entryPerimeter=0;labelBackgroundColor=default;strokeColor=default;fontFamily=Helvetica;fontSize=11;fontColor=default;endArrow=classic;" edge="1" parent="1" source="Y4_OtuAko8wCgOKkr69z-21" target="Y4_OtuAko8wCgOKkr69z-1">
          <mxGeometry relative="1" as="geometry" />
        </mxCell>
        <mxCell id="Y4_OtuAko8wCgOKkr69z-21" value="User&lt;br&gt;&amp;nbsp;Database" style="shape=cylinder3;whiteSpace=wrap;html=1;boundedLbl=1;backgroundOutline=1;size=15;" vertex="1" parent="1">
          <mxGeometry x="70" y="230" width="80" height="80" as="geometry" />
        </mxCell>
      </root>
    </mxGraphModel>
  </diagram>
</mxfile>
